<svg width="40" height="40" viewBox="0 0 40 40" fill="none" xmlns="http://www.w3.org/2000/svg">
<path d="M0 6C0 2.68629 2.68629 0 6 0H34C37.3137 0 40 2.68629 40 6V34C40 37.3137 37.3137 40 34 40H6C2.68629 40 0 37.3137 0 34V6Z" fill="#FFF5ED"/>
<path d="M23.2196 11.1482C23.3268 11.1958 23.4236 11.264 23.5044 11.349C23.5852 11.434 23.6484 11.5341 23.6906 11.6435C23.7327 11.753 23.7528 11.8697 23.7499 11.9869C23.7469 12.1041 23.7208 12.2196 23.6732 12.3268L16.5304 28.3982C16.4342 28.6146 16.256 28.784 16.035 28.8691C15.814 28.9541 15.5682 28.9479 15.3518 28.8518C15.1354 28.7556 14.966 28.5775 14.8809 28.3564C14.7959 28.1354 14.8021 27.8896 14.8982 27.6732L22.0411 11.6018C22.0887 11.4946 22.1569 11.3979 22.2419 11.3171C22.3269 11.2363 22.427 11.173 22.5364 11.1309C22.6459 11.0887 22.7625 11.0686 22.8798 11.0716C22.997 11.0746 23.1125 11.1006 23.2196 11.1482ZM13.4518 15.3143C13.5393 15.3924 13.6105 15.4869 13.6614 15.5925C13.7124 15.6982 13.742 15.8128 13.7486 15.9298C13.7553 16.0469 13.7388 16.1641 13.7001 16.2748C13.6614 16.3855 13.6013 16.4875 13.5232 16.575L10.4821 20L13.5268 23.425C13.6046 23.5127 13.6645 23.6149 13.7028 23.7257C13.7412 23.8365 13.7574 23.9538 13.7504 24.0709C13.7434 24.188 13.7135 24.3025 13.6622 24.408C13.611 24.5135 13.5395 24.6079 13.4518 24.6857C13.3641 24.7636 13.2619 24.8234 13.1511 24.8617C13.0403 24.9001 12.923 24.9163 12.8059 24.9093C12.6888 24.9023 12.5743 24.8724 12.4688 24.8212C12.3633 24.7699 12.2689 24.6984 12.1911 24.6107L8.61965 20.5929C8.47455 20.4295 8.39441 20.2185 8.39441 20C8.39441 19.7815 8.47455 19.5705 8.61965 19.4071L12.1911 15.3893C12.2689 15.3016 12.3633 15.23 12.4688 15.1788C12.5743 15.1275 12.6888 15.0976 12.8059 15.0906C12.923 15.0836 13.0403 15.0998 13.1511 15.1382C13.2619 15.1766 13.3641 15.2364 13.4518 15.3143ZM26.55 15.3143C26.6377 15.2364 26.7399 15.1766 26.8507 15.1382C26.9615 15.0998 27.0788 15.0836 27.1959 15.0906C27.313 15.0976 27.4275 15.1275 27.533 15.1788C27.6385 15.23 27.7329 15.3016 27.8107 15.3893L31.3821 19.4071C31.5272 19.5705 31.6074 19.7815 31.6074 20C31.6074 20.2185 31.5272 20.4295 31.3821 20.5929L27.8107 24.6107C27.7329 24.6984 27.6385 24.7699 27.533 24.8212C27.4275 24.8724 27.313 24.9023 27.1959 24.9093C27.0788 24.9163 26.9615 24.9001 26.8507 24.8617C26.7399 24.8234 26.6377 24.7636 26.55 24.6857C26.4623 24.6079 26.3908 24.5135 26.3396 24.408C26.2883 24.3025 26.2584 24.188 26.2514 24.0709C26.2444 23.9538 26.2606 23.8365 26.299 23.7257C26.3373 23.6149 26.3972 23.5127 26.475 23.425L29.5196 20L26.475 16.575C26.3971 16.4873 26.3373 16.3851 26.2989 16.2743C26.2605 16.1635 26.2444 16.0462 26.2513 15.9291C26.2583 15.812 26.2883 15.6975 26.3395 15.592C26.3908 15.4865 26.4623 15.3921 26.55 15.3143Z" fill="#FF7E35"/>
</svg>
