<svg width="40" height="40" viewBox="0 0 40 40" fill="none" xmlns="http://www.w3.org/2000/svg">
<path d="M0 6C0 2.68629 2.68629 0 6 0H34C37.3137 0 40 2.68629 40 6V34C40 37.3137 37.3137 40 34 40H6C2.68629 40 0 37.3137 0 34V6Z" fill="#EBF0FF"/>
<path d="M20.8928 19.1072C20.8928 18.3968 21.175 17.7155 21.6773 17.2131C22.1797 16.7108 22.861 16.4286 23.5714 16.4286H26.2499C26.4867 16.4286 26.7138 16.5227 26.8813 16.6901C27.0487 16.8575 27.1428 17.0847 27.1428 17.3215C27.1428 17.5583 27.0487 17.7854 26.8813 17.9528C26.7138 18.1202 26.4867 18.2143 26.2499 18.2143H23.5714C23.3346 18.2143 23.1075 18.3084 22.94 18.4758C22.7726 18.6433 22.6785 18.8704 22.6785 19.1072V20C22.6785 20.2368 22.7726 20.4639 22.94 20.6314C23.1075 20.7988 23.3346 20.8929 23.5714 20.8929H24.4642C25.1746 20.8929 25.8559 21.1751 26.3583 21.6774C26.8606 22.1797 27.1428 22.861 27.1428 23.5715V24.4643C27.1428 25.1747 26.8606 25.856 26.3583 26.3583C25.8559 26.8607 25.1746 27.1429 24.4642 27.1429H21.7856C21.5488 27.1429 21.3217 27.0488 21.1543 26.8814C20.9869 26.7139 20.8928 26.4868 20.8928 26.25C20.8928 26.0132 20.9869 25.7861 21.1543 25.6187C21.3217 25.4512 21.5488 25.3572 21.7856 25.3572H24.4642C24.701 25.3572 24.9281 25.2631 25.0956 25.0957C25.263 24.9282 25.3571 24.7011 25.3571 24.4643V23.5715C25.3571 23.3347 25.263 23.1075 25.0956 22.9401C24.9281 22.7727 24.701 22.6786 24.4642 22.6786H23.5714C22.861 22.6786 22.1797 22.3964 21.6773 21.8941C21.175 21.3917 20.8928 20.7104 20.8928 20V19.1072ZM19.9999 17.3215C19.9999 17.0847 19.9059 16.8575 19.7384 16.6901C19.571 16.5227 19.3439 16.4286 19.1071 16.4286C18.8703 16.4286 18.6432 16.5227 18.4757 16.6901C18.3083 16.8575 18.2142 17.0847 18.2142 17.3215V24.4643C18.2142 24.7011 18.1201 24.9282 17.9527 25.0957C17.7853 25.2631 17.5582 25.3572 17.3214 25.3572H15.5356C15.2988 25.3572 15.0717 25.4512 14.9043 25.6187C14.7369 25.7861 14.6428 26.0132 14.6428 26.25C14.6428 26.4868 14.7369 26.7139 14.9043 26.8814C15.0717 27.0488 15.2988 27.1429 15.5356 27.1429H17.3214C18.0318 27.1429 18.7131 26.8607 19.2154 26.3583C19.7177 25.856 19.9999 25.1747 19.9999 24.4643V17.3215ZM9.28564 13.75C9.28564 12.566 9.75599 11.4305 10.5932 10.5933C11.4304 9.75608 12.5659 9.28574 13.7499 9.28574H26.2499C27.4339 9.28574 28.5694 9.75608 29.4067 10.5933C30.2439 11.4305 30.7142 12.566 30.7142 13.75V26.25C30.7142 27.434 30.2439 28.5695 29.4067 29.4067C28.5694 30.244 27.4339 30.7143 26.2499 30.7143H13.7499C12.5659 30.7143 11.4304 30.244 10.5932 29.4067C9.75599 28.5695 9.28564 27.434 9.28564 26.25V13.75ZM13.7499 11.0715C13.0395 11.0715 12.3582 11.3537 11.8559 11.856C11.3536 12.3583 11.0714 13.0396 11.0714 13.75V26.25C11.0714 26.9604 11.3536 27.6417 11.8559 28.1441C12.3582 28.6464 13.0395 28.9286 13.7499 28.9286H26.2499C26.9603 28.9286 27.6416 28.6464 28.144 28.1441C28.6463 27.6417 28.9285 26.9604 28.9285 26.25V13.75C28.9285 13.0396 28.6463 12.3583 28.144 11.856C27.6416 11.3537 26.9603 11.0715 26.2499 11.0715H13.7499Z" fill="#306AFF"/>
</svg>
