<svg width="40" height="40" viewBox="0 0 40 40" fill="none" xmlns="http://www.w3.org/2000/svg">
<path d="M0 6C0 2.68629 2.68629 0 6 0H34C37.3137 0 40 2.68629 40 6V34C40 37.3137 37.3137 40 34 40H6C2.68629 40 0 37.3137 0 34V6Z" fill="#E0FDEF"/>
<path d="M12.8571 7.50357C12.6203 7.50357 12.3932 7.59764 12.2257 7.76508C12.0583 7.93253 11.9642 8.15963 11.9642 8.39643V20.8929C11.9642 21.8401 12.3405 22.7485 13.0103 23.4182C13.6801 24.088 14.5885 24.4643 15.5357 24.4643H16.4285V28.9286C16.4285 29.3973 16.5209 29.8615 16.7002 30.2946C16.8796 30.7277 17.1426 31.1212 17.474 31.4527C17.8055 31.7842 18.199 32.0471 18.6321 32.2265C19.0652 32.4059 19.5294 32.4982 19.9982 32.4982C20.4669 32.4982 20.9311 32.4059 21.3642 32.2265C21.7973 32.0471 22.1908 31.7842 22.5223 31.4527C22.8538 31.1212 23.1167 30.7277 23.2961 30.2946C23.4755 29.8615 23.5678 29.3973 23.5678 28.9286V24.4643H24.4642C25.4114 24.4643 26.3198 24.088 26.9896 23.4182C27.6594 22.7485 28.0357 21.8401 28.0357 20.8929V8.39643C28.0357 8.15963 27.9416 7.93253 27.7742 7.76508C27.6067 7.59764 27.3796 7.50357 27.1428 7.50357H12.8571ZM26.2499 18.2143H13.7499V9.28929H19.1071V11.9714C19.1071 12.2082 19.2012 12.4353 19.3686 12.6028C19.536 12.7702 19.7631 12.8643 19.9999 12.8643C20.2367 12.8643 20.4639 12.7702 20.6313 12.6028C20.7987 12.4353 20.8928 12.2082 20.8928 11.9714V9.28929H22.6785V13.7464C22.6785 13.9832 22.7726 14.2103 22.94 14.3778C23.1075 14.5452 23.3346 14.6393 23.5714 14.6393C23.8082 14.6393 24.0353 14.5452 24.2027 14.3778C24.3702 14.2103 24.4642 13.9832 24.4642 13.7464V9.28929H26.2499V18.2143ZM13.7499 20.8929V20H26.2499V20.8929C26.2499 21.3665 26.0618 21.8207 25.7269 22.1555C25.392 22.4904 24.9378 22.6786 24.4642 22.6786H22.6749C22.4381 22.6786 22.211 22.7726 22.0436 22.9401C21.8762 23.1075 21.7821 23.3346 21.7821 23.5714V28.9286C21.7821 29.4017 21.5941 29.8554 21.2596 30.19C20.925 30.5246 20.4713 30.7125 19.9982 30.7125C19.525 30.7125 19.0713 30.5246 18.7367 30.19C18.4022 29.8554 18.2142 29.4017 18.2142 28.9286V23.5714C18.2142 23.3346 18.1202 23.1075 17.9527 22.9401C17.7853 22.7726 17.5582 22.6786 17.3214 22.6786H15.5357C15.0621 22.6786 14.6079 22.4904 14.273 22.1555C13.9381 21.8207 13.7499 21.3665 13.7499 20.8929Z" fill="#2FD887"/>
</svg>
